<svg xmlns="http://www.w3.org/2000/svg" viewBox="0 0 1000 750" width="1000" height="750" role="img"><rect x="0" y="0" width="1000" height="750" rx="0" fill="#141820" opacity="1.0"/><rect x="0" y="0" width="1000" height="54" rx="0" fill="#0E1116" opacity="1.0"/><circle cx="30" cy="27" r="6" fill="#3FA66A" opacity="1.0"/><text x="50" y="32" font-family="Inter,system-ui,sans-serif" font-size="15" fill="#C7CCD6" font-weight="600" text-anchor="start" opacity="1.0">Otomatik Sulama Sistemi — çalışır durumda</text><rect x="0" y="470" width="1000" height="280" rx="0" fill="#2A2620" opacity="1.0"/><rect x="0" y="470" width="1000" height="6" rx="0" fill="#3A342B" opacity="1.0"/><path d="M300,470 l24,-140 h132 l24,140 z" fill="#A8542F"/><rect x="296" y="316" width="192" height="22" rx="4" fill="#C2653A" opacity="1.0"/><rect x="316" y="336" width="152" height="26" rx="0" fill="#4A3B2A" opacity="1.0"/><path d="M360,336 q4,-72 0,-120" stroke="#3E7D4A" stroke-width="6" fill="none"/><ellipse cx="344" cy="270" rx="20" ry="10" fill="#4E9A5C" transform="rotate(-28 344 270)"/><ellipse cx="376" cy="242" rx="20" ry="10" fill="#57A866" transform="rotate(24 376 242)"/><path d="M392,336 q4,-96 0,-160" stroke="#3E7D4A" stroke-width="6" fill="none"/><ellipse cx="376" cy="248" rx="20" ry="10" fill="#4E9A5C" transform="rotate(-28 376 248)"/><ellipse cx="408" cy="211" rx="20" ry="10" fill="#57A866" transform="rotate(24 408 211)"/><path d="M424,336 q4,-78 0,-130" stroke="#3E7D4A" stroke-width="6" fill="none"/><ellipse cx="408" cy="264" rx="20" ry="10" fill="#4E9A5C" transform="rotate(-28 408 264)"/><ellipse cx="440" cy="235" rx="20" ry="10" fill="#57A866" transform="rotate(24 440 235)"/><rect x="430" y="352" width="12" height="70" rx="2" fill="#B0B0B0" opacity="1.0"/><path d="M436,352 L560,300" stroke="#2F6FB5" stroke-width="4" fill="none"/><path d="M470,248 q8,11 0,17 q-8,-6 0,-17 z" fill="#5CB1D6" opacity="0.9"/><path d="M470,284 q8,11 0,17 q-8,-6 0,-17 z" fill="#5CB1D6" opacity="0.9"/><path d="M470,320 q8,11 0,17 q-8,-6 0,-17 z" fill="#5CB1D6" opacity="0.9"/><rect x="440" y="198" width="64" height="42" rx="6" fill="#3A4453" opacity="1.0"/><text x="472" y="224" font-family="Inter,system-ui,sans-serif" font-size="11" fill="#C7CCD6" font-weight="400" text-anchor="middle" opacity="1.0">pompa</text><rect x="600" y="300" width="300" height="170" rx="8" fill="#0E6B70" opacity="1.0"/><text x="624" y="336" font-family="Inter,system-ui,sans-serif" font-size="14" fill="#7FD4D8" font-weight="700" text-anchor="start" opacity="1.0">ARDUINO UNO</text><rect x="624" y="352" width="252" height="96" rx="4" fill="#0A5458" opacity="1.0"/><rect x="636" y="364" width="228" height="72" rx="3" fill="#1E5F3A" opacity="1.0"/><text x="650" y="394" font-family="'JetBrains Mono',ui-monospace,monospace" font-size="18" fill="#7FE39A" font-weight="600" text-anchor="start" opacity="1.0">Nem: %28</text><text x="650" y="422" font-family="'JetBrains Mono',ui-monospace,monospace" font-size="18" fill="#FFD24A" font-weight="600" text-anchor="start" opacity="1.0">SULAMA ACIK</text><circle cx="878" cy="318" r="6" fill="#3FA66A" opacity="1.0"/><path d="M600,340 C560,340 540,300 504,300" stroke="#D94A3D" stroke-width="4" fill="none"/><path d="M600,382 C570,382 572,320 560,300" stroke="#2F6FB5" stroke-width="4" fill="none"/><text x="436" y="448" font-family="Inter,system-ui,sans-serif" font-size="11" fill="#7C8493" font-weight="400" text-anchor="middle" opacity="1.0">nem sensörü</text><text x="750" y="496" font-family="Inter,system-ui,sans-serif" font-size="11" fill="#7C8493" font-weight="400" text-anchor="middle" opacity="1.0">Arduino UNO + LCD ekran</text></svg>